mtllib ./UnityLogo2.All files.mtl
g UnityLogo
v -0.4889001 1.536638 0.3490046
v -0.164302 2.044673 0.3490046
v 1.152055 1.796645 0.3490046
v -0.4399378 1.451662 0.3490046
v 1.829619 2.468943 0.3490046
v 0.3998985 -0.0006847382 0.3490046
v 1.152055 1.796645 0.3490046
v 0.3998985 -0.0006847382 0.3490046
v 0.245654 0.2670138 0.3490046
v -0.4889001 1.536638 0.3490046
v -0.4399378 1.451662 0.3490046
v -1.532279 0.2499671 0.3490046
v -1.532279 0.2499671 0.3490046
v -1.093469 1.509137 0.3490046
v 0.245654 0.2670138 0.3490046
v -2.458246 -0.0006754398 0.3490046
v -1.532279 -0.2513361 0.3490046
v 0.2456541 -0.268383 0.3490046
v -1.086688 -1.511863 0.3490046
v -0.4916655 -1.537994 0.3490046
v -0.4427031 -1.453018 0.3490046
v 1.150722 -1.795321 0.3490046
v 1.150722 -1.795321 0.3490046
v 0.2456541 -0.268383 0.3490046
v -0.1643021 -2.046043 0.3490046
v 1.830698 -2.468944 0.3490046
v 1.585758 -1.546606 0.3490046
v 0.7088555 -0.000387907 0.3490046
v 2.457899 -0.531672 0.3490046
v 2.182427 -0.001770735 0.3490046
v 2.08482 -0.001865625 0.3490046
v 1.584114 1.547508 0.3490046
v 2.458247 0.5355916 0.3490046
v -1.093469 1.509137 9.536743E-07
v -0.4889001 1.536638 9.536743E-07
v -1.093469 1.509137 0.3490046
v -0.4889001 1.536638 0.3490046
v -2.458246 -0.0006754398 9.536743E-07
v -1.093469 1.509137 9.536743E-07
v -2.458246 -0.0006754398 0.3490046
v -1.093469 1.509137 0.3490046
v -0.4399378 1.451662 9.536743E-07
v -1.532279 0.2499671 9.536743E-07
v -0.4399378 1.451662 0.3490046
v -1.532279 0.2499671 0.3490046
v 1.152055 1.796645 9.536743E-07
v -0.4399378 1.451662 9.536743E-07
v 1.152055 1.796645 0.3490046
v -0.4399378 1.451662 0.3490046
v -0.4889001 1.536638 9.536743E-07
v -0.164302 2.044673 9.536743E-07
v -0.4889001 1.536638 0.3490046
v -0.164302 2.044673 0.3490046
v -0.164302 2.044673 9.536743E-07
v 1.829619 2.468943 9.536743E-07
v -0.164302 2.044673 0.3490046
v 1.829619 2.468943 0.3490046
v -1.532279 0.2499669 9.536743E-07
v 0.245654 0.2670138 9.536743E-07
v -1.532279 0.2499669 0.3490046
v 0.245654 0.2670138 0.3490046
v 0.245654 0.2670138 9.536743E-07
v 1.152055 1.796645 9.536743E-07
v 0.245654 0.2670138 0.3490046
v 1.152055 1.796645 0.3490046
v 0.2456541 -0.268383 9.536743E-07
v -1.532279 -0.2513361 9.536743E-07
v 0.2456541 -0.268383 0.3490046
v -1.532279 -0.2513361 0.3490046
v -1.086688 -1.511863 9.536743E-07
v -2.458246 -0.0006754398 9.536743E-07
v -1.086688 -1.511863 0.3490046
v -2.458246 -0.0006754398 0.3490046
v 1.584114 1.547508 9.536743E-07
v 0.7088555 -0.000387907 9.536743E-07
v 1.584114 1.547508 0.3490046
v 0.7088555 -0.000387907 0.3490046
v 1.829619 2.468943 9.536743E-07
v 2.458247 0.5355916 9.536743E-07
v 1.829619 2.468943 0.3490046
v 2.458247 0.5355916 0.3490046
v 1.150722 -1.795321 9.536743E-07
v 0.2456541 -0.268383 9.536743E-07
v 1.150722 -1.795321 0.3490046
v 0.2456541 -0.268383 0.3490046
v -0.4916655 -1.537994 9.536743E-07
v -1.086688 -1.511863 9.536743E-07
v -0.4916655 -1.537994 0.3490046
v -1.086688 -1.511863 0.3490046
v 0.7088555 -0.000387907 9.536743E-07
v 1.585758 -1.546606 9.536743E-07
v 0.7088555 -0.000387907 0.3490046
v 1.585758 -1.546606 0.3490046
v 2.458247 0.5355916 9.536743E-07
v 2.182427 -0.001770735 9.536743E-07
v 2.458247 0.5355916 0.3490046
v 2.182427 -0.001770735 0.3490046
v -1.532279 -0.2513361 9.536743E-07
v -0.4427031 -1.453018 9.536743E-07
v -1.532279 -0.2513361 0.3490046
v -0.4427031 -1.453018 0.3490046
v 2.08482 -0.001865625 9.536743E-07
v 1.584114 1.547508 9.536743E-07
v 2.08482 -0.001865625 0.3490046
v 1.584114 1.547508 0.3490046
v 1.830698 -2.468944 9.536743E-07
v -0.1643021 -2.046043 9.536743E-07
v 1.830698 -2.468944 0.3490046
v -0.1643021 -2.046043 0.3490046
v -0.4427031 -1.453018 9.536743E-07
v 1.150722 -1.795321 9.536743E-07
v -0.4427031 -1.453018 0.3490046
v 1.150722 -1.795321 0.3490046
v 2.457899 -0.531672 9.536743E-07
v 1.830698 -2.468944 9.536743E-07
v 2.457899 -0.531672 0.3490046
v 1.830698 -2.468944 0.3490046
v 1.585758 -1.546606 9.536743E-07
v 2.08482 -0.001865625 9.536743E-07
v 1.585758 -1.546606 0.3490046
v 2.08482 -0.001865625 0.3490046
v -0.1643021 -2.046043 9.536743E-07
v -0.4916655 -1.537994 9.536743E-07
v -0.1643021 -2.046043 0.3490046
v -0.4916655 -1.537994 0.3490046
v 2.182427 -0.001770735 9.536743E-07
v 2.457899 -0.531672 9.536743E-07
v 2.182427 -0.001770735 0.3490046
v 2.457899 -0.531672 0.3490046

vn 0 0 1
vn 0 0 1
vn 0 0 1
vn 0 0 1
vn 0 0 1
vn 0 0 1
vn 0 0 0.9999999
vn 0 0 0.9999999
vn 0 0 0.9999999
vn 0 0 0.9999999
vn 0 0 0.9999999
vn 0 0 0.9999999
vn 0 0 1
vn 0 0 1
vn 0 0 1
vn 0 0 1
vn 0 0 1
vn 0 0 1
vn 0 0 1
vn 0 0 1
vn 0 0 1
vn 0 0 1
vn 0 0 0.9999999
vn 0 0 0.9999999
vn 0 0 1
vn 0 0 1
vn 0 0 1
vn 0 0 1
vn 0 0 1
vn 0 0 1
vn 0 0 1
vn 0 0 1
vn 0 0 1
vn -0.04544262 0.9989669 0
vn -0.04544262 0.9989669 0
vn -0.04544262 0.9989669 0
vn -0.04544262 0.9989669 0
vn -0.7418395 0.6705776 0
vn -0.7418395 0.6705776 0
vn -0.7418395 0.6705776 0
vn -0.7418395 0.6705776 0
vn 0.7399734 -0.6726361 0
vn 0.7399734 -0.6726361 0
vn 0.7399734 -0.6726361 0
vn 0.7399734 -0.6726361 0
vn 0.2117835 -0.9773166 0
vn 0.2117835 -0.9773166 0
vn 0.2117835 -0.9773166 0
vn 0.2117835 -0.9773166 0
vn -0.8426809 0.5384133 0
vn -0.8426809 0.5384133 0
vn -0.8426809 0.5384133 0
vn -0.8426809 0.5384133 0
vn -0.2081225 0.9781027 0
vn -0.2081225 0.9781027 0
vn -0.2081225 0.9781027 0
vn -0.2081225 0.9781027 0
vn -0.009587618 0.999954 0
vn -0.009587618 0.999954 0
vn -0.009587618 0.999954 0
vn -0.009587618 0.999954 0
vn -0.8603033 0.5097825 0
vn -0.8603033 0.5097825 0
vn -0.8603033 0.5097825 0
vn -0.8603033 0.5097825 0
vn -0.009587619 -0.999954 0
vn -0.009587619 -0.999954 0
vn -0.009587619 -0.999954 0
vn -0.009587619 -0.999954 0
vn -0.7404882 -0.6720694 0
vn -0.7404882 -0.6720694 0
vn -0.7404882 -0.6720694 0
vn -0.7404882 -0.6720694 0
vn 0.8704759 -0.492211 0
vn 0.8704759 -0.492211 0
vn 0.8704759 -0.492211 0
vn 0.8704759 -0.492211 0
vn 0.9509922 0.3092147 0
vn 0.9509922 0.3092147 0
vn 0.9509922 0.3092147 0
vn 0.9509922 0.3092147 0
vn -0.8602381 -0.5098926 0
vn -0.8602381 -0.5098926 0
vn -0.8602381 -0.5098926 0
vn -0.8602381 -0.5098926 0
vn -0.04387432 -0.999037 0
vn -0.04387432 -0.999037 0
vn -0.04387432 -0.999037 0
vn -0.04387432 -0.999037 0
vn 0.8698503 0.4933158 0
vn 0.8698503 0.4933158 0
vn 0.8698503 0.4933158 0
vn 0.8698503 0.4933158 0
vn 0.8896493 -0.4566444 0
vn 0.8896493 -0.4566444 0
vn 0.8896493 -0.4566444 0
vn 0.8896493 -0.4566444 0
vn 0.7408177 0.6717061 0
vn 0.7408177 0.6717061 0
vn 0.7408177 0.6717061 0
vn 0.7408177 0.6717061 0
vn -0.9515456 -0.3075078 0
vn -0.9515456 -0.3075078 0
vn -0.9515456 -0.3075078 0
vn -0.9515456 -0.3075078 0
vn -0.2073725 -0.9782621 0
vn -0.2073725 -0.9782621 0
vn -0.2073725 -0.9782621 0
vn -0.2073725 -0.9782621 0
vn 0.2100305 0.9776949 0
vn 0.2100305 0.9776949 0
vn 0.2100305 0.9776949 0
vn 0.2100305 0.9776949 0
vn 0.9513817 -0.3080142 0
vn 0.9513817 -0.3080142 0
vn 0.9513817 -0.3080142 0
vn 0.9513817 -0.3080142 0
vn -0.9515719 0.3074262 0
vn -0.9515719 0.3074262 0
vn -0.9515719 0.3074262 0
vn -0.9515719 0.3074262 0
vn -0.8406055 -0.541648 0
vn -0.8406055 -0.541648 0
vn -0.8406055 -0.541648 0
vn -0.8406055 -0.541648 0
vn 0.8872693 0.4612519 0
vn 0.8872693 0.4612519 0
vn 0.8872693 0.4612519 0
vn 0.8872693 0.4612519 0

vt 0.8977895 0.5959446
vt 0.946651 0.5322444
vt 0.9227968 0.2739176
vt 0.8896166 0.5863359
vt 0.987457 0.1409502
vt 0.7499337 0.4215223
vt 0.9227968 0.2739176
vt 0.7499337 0.4215223
vt 0.7756802 0.451792
vt 0.8977895 0.5959446
vt 0.8896166 0.5863359
vt 0.7740402 0.8007003
vt 0.7740402 0.8007003
vt 0.8951442 0.7145873
vt 0.7756802 0.451792
vt 0.7499337 0.9824155
vt 0.7258261 0.8006999
vt 0.7241871 0.4517917
vt 0.6045918 0.7132548
vt 0.6020787 0.5964851
vt 0.6102515 0.5868768
vt 0.5773302 0.2741767
vt 0.5773302 0.2741767
vt 0.7241871 0.4517917
vt 0.553216 0.5322419
vt 0.512543 0.1407352
vt 0.6012511 0.1888039
vt 0.7499623 0.3608914
vt 0.6988653 0.0176523
vt 0.7498298 0.07171229
vt 0.7498206 0.09086689
vt 0.8988355 0.1891284
vt 0.8015121 0.01758456
vt 0.6051936 0
vt -2.980232E-08 0
vt 0.6051936 0.3490037
vt -2.980232E-08 0.3490037
vt 0 1.192093E-07
vt 0 2.035228
vt 0.3490037 1.192093E-07
vt 0.3490037 2.035228
vt 0.3490037 1.623971
vt 0.3490037 5.960464E-08
vt 0 1.623971
vt 0 5.960464E-08
vt 1.628942 0
vt 0 0
vt 1.628942 0.3490037
vt 0 0.3490037
vt 0 0
vt 0 0.6028792
vt 0.3490037 0
vt 0.3490037 0.6028792
vt 2.03856 0
vt 0 0
vt 2.03856 0.3490037
vt 0 0.3490037
vt 1.778015 0
vt 5.960464E-08 0
vt 1.778015 0.3490037
vt 5.960464E-08 0.3490037
vt 0 -5.960464E-08
vt 0 1.778014
vt 0.3490037 -5.960464E-08
vt 0.3490037 1.778014
vt 1.778015 0
vt 0 0
vt 1.778015 0.3490037
vt 0 0.3490037
vt 0 0
vt 0 2.040799
vt 0.3490037 0
vt 0.3490037 2.040799
vt 0.3490037 1.778219
vt 0.3490037 0
vt 0 1.778219
vt 0 0
vt 0.3490037 2.032984
vt 0.3490037 0
vt 0 2.032984
vt 0 0
vt 0 0
vt 0 1.775018
vt 0.3490037 0
vt 0.3490037 1.775018
vt 0.5955966 0
vt 0 0
vt 0.5955966 0.3490037
vt 0 0.3490037
vt 0.3490037 1.777568
vt 0.3490037 0
vt 0 1.777568
vt 0 0
vt 0.3490037 0.6040158
vt 0.3490037 -5.960464E-08
vt 0 0.6040158
vt 0 -5.960464E-08
vt 0.3490037 1.622102
vt 0.3490037 5.960464E-08
vt 0 1.622102
vt 0 5.960464E-08
vt 0 0
vt 0 1.628271
vt 0.3490037 0
vt 0.3490037 1.628271
vt 2.039331 0
vt 0 0
vt 2.039331 0.3490037
vt 0 0.3490037
vt 1.629778 0
vt 0 0
vt 1.629778 0.3490037
vt 0 0.3490037
vt 0.3490037 2.036272
vt 0.3490037 0
vt 0 2.036272
vt 0 0
vt 0 0
vt 0 1.623357
vt 0.3490037 0
vt 0.3490037 1.623357
vt 0 0
vt 0 0.6043843
vt 0.3490037 0
vt 0.3490037 0.6043843
vt 0.3490037 0.5972271
vt 0.3490037 -1.192093E-07
vt 0 0.5972271
vt 0 -1.192093E-07

g MenuBg
usemtl MenuBg
usemap MenuBg
f 2/2/2 1/1/1 3/3/3
f 3/3/3 1/1/1 4/4/4
f 2/2/2 3/3/3 5/5/5
f 5/5/5 3/3/3 6/6/6
f 8/8/8 7/7/7 9/9/9
f 11/11/11 10/10/10 12/12/12
f 13/13/13 1/1/1 14/14/14
f 15/15/15 13/13/13 6/6/6
f 6/6/6 13/13/13 16/16/16
f 13/13/13 14/14/14 16/16/16
f 16/16/16 17/17/17 6/6/6
f 6/6/6 17/17/17 18/18/18
f 19/19/19 17/17/17 16/16/16
f 19/19/19 20/20/20 17/17/17
f 17/17/17 20/20/20 21/21/21
f 21/21/21 20/20/20 22/22/22
f 24/24/24 23/23/23 8/8/8
f 22/22/22 20/20/20 25/25/25
f 6/6/6 22/22/22 26/26/26
f 22/22/22 25/25/25 26/26/26
f 26/26/26 27/27/27 6/6/6
f 6/6/6 27/27/27 28/28/28
f 29/29/29 27/27/27 26/26/26
f 29/29/29 30/30/30 27/27/27
f 27/27/27 30/30/30 31/31/31
f 31/31/31 30/30/30 32/32/32
f 32/32/32 30/30/30 33/33/33
f 28/28/28 32/32/32 6/6/6
f 6/6/6 32/32/32 5/5/5
f 32/32/32 33/33/33 5/5/5
f 35/35/35 34/34/34 36/36/36
f 37/37/37 35/35/35 36/36/36
f 39/39/39 38/38/38 40/40/40
f 41/41/41 39/39/39 40/40/40
f 43/43/43 42/42/42 44/44/44
f 45/45/45 43/43/43 44/44/44
f 47/47/47 46/46/46 48/48/48
f 49/49/49 47/47/47 48/48/48
f 51/51/51 50/50/50 52/52/52
f 53/53/53 51/51/51 52/52/52
f 55/55/55 54/54/54 56/56/56
f 57/57/57 55/55/55 56/56/56
f 59/59/59 58/58/58 60/60/60
f 61/61/61 59/59/59 60/60/60
f 63/63/63 62/62/62 64/64/64
f 65/65/65 63/63/63 64/64/64
f 67/67/67 66/66/66 68/68/68
f 69/69/69 67/67/67 68/68/68
f 71/71/71 70/70/70 72/72/72
f 73/73/73 71/71/71 72/72/72
f 75/75/75 74/74/74 76/76/76
f 77/77/77 75/75/75 76/76/76
f 79/79/79 78/78/78 80/80/80
f 81/81/81 79/79/79 80/80/80
f 83/83/83 82/82/82 84/84/84
f 85/85/85 83/83/83 84/84/84
f 87/87/87 86/86/86 88/88/88
f 89/89/89 87/87/87 88/88/88
f 91/91/91 90/90/90 92/92/92
f 93/93/93 91/91/91 92/92/92
f 95/95/95 94/94/94 96/96/96
f 97/97/97 95/95/95 96/96/96
f 99/99/99 98/98/98 100/100/100
f 101/101/101 99/99/99 100/100/100
f 103/103/103 102/102/102 104/104/104
f 105/105/105 103/103/103 104/104/104
f 107/107/107 106/106/106 108/108/108
f 109/109/109 107/107/107 108/108/108
f 111/111/111 110/110/110 112/112/112
f 113/113/113 111/111/111 112/112/112
f 115/115/115 114/114/114 116/116/116
f 117/117/117 115/115/115 116/116/116
f 119/119/119 118/118/118 120/120/120
f 121/121/121 119/119/119 120/120/120
f 123/123/123 122/122/122 124/124/124
f 125/125/125 123/123/123 124/124/124
f 127/127/127 126/126/126 128/128/128
f 129/129/129 127/127/127 128/128/128
